<svg width="48" height="48" viewBox="0 0 48 48" fill="none" xmlns="http://www.w3.org/2000/svg">
<circle cx="23.998" cy="24.1973" r="23.8027" fill="#666666"/>
<path d="M15.815 15.0195H36.3953L33.5953 24.207H17.3227M34.9953 29.457H18.1953L15.3953 12.3945H11.1953M19.5953 34.707C19.5953 35.4319 18.9685 36.0195 18.1953 36.0195C17.4221 36.0195 16.7953 35.4319 16.7953 34.707C16.7953 33.9821 17.4221 33.3945 18.1953 33.3945C18.9685 33.3945 19.5953 33.9821 19.5953 34.707ZM34.9953 34.707C34.9953 35.4319 34.3685 36.0195 33.5953 36.0195C32.8221 36.0195 32.1953 35.4319 32.1953 34.707C32.1953 33.9821 32.8221 33.3945 33.5953 33.3945C34.3685 33.3945 34.9953 33.9821 34.9953 34.707Z" stroke="white" stroke-width="2.5" stroke-linecap="round" stroke-linejoin="round"/>
<circle cx="34.1953" cy="13.3945" r="8" fill="white"/>
<path fill-rule="evenodd" clip-rule="evenodd" d="M33.88 13.0753L33.88 10.1953H34.52L34.52 13.0753L37.4 13.0753V13.7153L34.52 13.7153L34.52 16.5953H33.88L33.88 13.7153L31 13.7153V13.0753L33.88 13.0753Z" fill="black" stroke="black"/>
</svg>
