<svg width="25" height="25" viewBox="0 0 25 25" fill="none" xmlns="http://www.w3.org/2000/svg">
<path d="M9.79412 17.875C14.1113 17.875 17.6111 14.0975 17.6111 9.43752C17.6111 4.7776 14.1113 1 9.79412 1C5.47691 1 1.97713 4.7776 1.97713 9.43752C1.97713 10.6923 2.23085 11.8829 2.68593 12.9532L1 17.875L5.88562 16.7463C7.0354 17.4642 8.3703 17.875 9.79412 17.875Z" stroke="white" stroke-width="2" stroke-linejoin="round"/>
<path d="M10.9727 22.6558C12.1927 23.506 13.6463 23.9994 15.2064 23.9994C16.6303 23.9994 17.9652 23.5885 19.115 22.8706L24.0006 23.9994L22.3147 19.0775C22.7697 18.0072 23.0235 16.8166 23.0235 15.5618C23.0235 13.6523 22.4359 11.8909 21.4451 10.4769C20.488 9.11105 19.1548 8.06929 17.6117 7.53125" stroke="white" stroke-width="2" stroke-linecap="round" stroke-linejoin="round"/>
<path d="M13.7769 10.9588C13.0712 10.9588 12.4991 10.272 12.4991 9.42472C12.4991 8.57746 13.0712 7.89062 13.7769 7.89062C14.4826 7.89062 15.0547 8.57746 15.0547 9.42472C15.0547 10.272 14.4826 10.9588 13.7769 10.9588Z" fill="white"/>
<path d="M9.94488 10.9588C9.23918 10.9588 8.6671 10.272 8.6671 9.42472C8.6671 8.57746 9.23918 7.89062 9.94488 7.89062C10.6506 7.89062 11.2227 8.57746 11.2227 9.42472C11.2227 10.272 10.6506 10.9588 9.94488 10.9588Z" fill="white"/>
<path d="M6.11089 10.9588C5.4052 10.9588 4.83311 10.272 4.83311 9.42472C4.83311 8.57746 5.4052 7.89062 6.11089 7.89062C6.81659 7.89062 7.38867 8.57746 7.38867 9.42472C7.38867 10.272 6.81659 10.9588 6.11089 10.9588Z" fill="white"/>
</svg>
