<svg width="25" height="24" viewBox="0 0 25 24" fill="none" xmlns="http://www.w3.org/2000/svg">
<g clip-path="url(#clip0_889_8798)">
<g filter="url(#filter0_d_889_8798)">
<mask id="path-1-inside-1_889_8798" fill="white">
<path d="M12.5039 1C18.579 1 23.5039 5.92487 23.5039 12C23.5039 14.0572 22.937 15.9811 21.9541 17.6279L23.3516 22.8408L18.1416 21.4443C16.4926 22.4308 14.5651 23 12.5039 23C6.42877 23 1.50391 18.0751 1.50391 12C1.50391 5.92487 6.42877 1 12.5039 1Z"/>
</mask>
<path d="M21.9541 17.6279L20.4084 16.7055C20.1591 17.1232 20.0895 17.6241 20.2155 18.094L21.9541 17.6279ZM23.3516 22.8408L22.8855 24.5794C23.5068 24.746 24.1696 24.5684 24.6244 24.1136C25.0791 23.6588 25.2567 22.9959 25.0902 22.3747L23.3516 22.8408ZM18.1416 21.4443L18.6076 19.7057C18.1371 19.5796 17.6356 19.6496 17.2175 19.8996L18.1416 21.4443ZM12.5039 1V2.8C17.5849 2.8 21.7039 6.91898 21.7039 12H23.5039H25.3039C25.3039 4.93076 19.5732 -0.8 12.5039 -0.8V1ZM23.5039 12H21.7039C21.7039 13.7219 21.2303 15.3284 20.4084 16.7055L21.9541 17.6279L23.4998 18.5504C24.6436 16.6338 25.3039 14.3925 25.3039 12H23.5039ZM21.9541 17.6279L20.2155 18.094L21.613 23.3069L23.3516 22.8408L25.0902 22.3747L23.6927 17.1618L21.9541 17.6279ZM23.3516 22.8408L23.8176 21.1022L18.6076 19.7057L18.1416 21.4443L17.6756 23.183L22.8855 24.5794L23.3516 22.8408ZM18.1416 21.4443L17.2175 19.8996C15.8387 20.7245 14.2292 21.2 12.5039 21.2V23V24.8C14.9011 24.8 17.1466 24.1371 19.0657 22.989L18.1416 21.4443ZM12.5039 23V21.2C7.42289 21.2 3.30391 17.081 3.30391 12H1.50391H-0.296094C-0.296094 19.0692 5.43466 24.8 12.5039 24.8V23ZM1.50391 12H3.30391C3.30391 6.91898 7.42289 2.8 12.5039 2.8V1V-0.8C5.43466 -0.8 -0.296094 4.93076 -0.296094 12H1.50391Z" fill="white" mask="url(#path-1-inside-1_889_8798)"/>
</g>
</g>
<defs>
<filter id="filter0_d_889_8798" x="-2.49609" y="-3" width="30" height="30" filterUnits="userSpaceOnUse" color-interpolation-filters="sRGB">
<feFlood flood-opacity="0" result="BackgroundImageFix"/>
<feColorMatrix in="SourceAlpha" type="matrix" values="0 0 0 0 0 0 0 0 0 0 0 0 0 0 0 0 0 0 127 0" result="hardAlpha"/>
<feOffset/>
<feGaussianBlur stdDeviation="2"/>
<feComposite in2="hardAlpha" operator="out"/>
<feColorMatrix type="matrix" values="0 0 0 0 0 0 0 0 0 0 0 0 0 0 0 0 0 0 0.25 0"/>
<feBlend mode="normal" in2="BackgroundImageFix" result="effect1_dropShadow_889_8798"/>
<feBlend mode="normal" in="SourceGraphic" in2="effect1_dropShadow_889_8798" result="shape"/>
</filter>
<clipPath id="clip0_889_8798">
<rect width="24" height="24" fill="white" transform="translate(0.503906)"/>
</clipPath>
</defs>
</svg>
