<svg width="22" height="22" viewBox="0 0 22 22" fill="none" xmlns="http://www.w3.org/2000/svg">
<path d="M10.9114 0.297668C5.15869 0.297668 0.478516 4.97784 0.478516 10.7305C0.478516 16.4832 5.15869 21.1633 10.9114 21.1633C16.664 21.1633 21.3442 16.4832 21.3442 10.7305C21.3442 4.97784 16.664 0.297668 10.9114 0.297668ZM10.9114 19.0768C6.30915 19.0768 2.56508 15.3326 2.56508 10.7305C2.56508 6.12837 6.30915 2.38424 10.9114 2.38424C15.5136 2.38424 19.2576 6.12837 19.2576 10.7305C19.2576 15.3326 15.5136 19.0768 10.9114 19.0768Z" fill="white"/>
<path d="M15.4747 6.16716C15.0673 5.75979 14.4067 5.75979 13.9993 6.16716L10.9117 9.25479L7.82396 6.16716C7.41659 5.75979 6.75598 5.75979 6.34855 6.16716C5.94111 6.57453 5.94111 7.23513 6.34855 7.64257L9.43625 10.7302L6.34862 13.8179C5.94118 14.2253 5.94118 14.8859 6.34862 15.2933C6.55226 15.497 6.81928 15.5989 7.08629 15.5989C7.3533 15.5989 7.62031 15.497 7.82396 15.2932L10.9117 12.2056L13.9994 15.2932C14.203 15.497 14.47 15.5989 14.737 15.5989C15.004 15.5989 15.2711 15.497 15.4747 15.2932C15.8821 14.8859 15.8821 14.2253 15.4747 13.8178L12.3871 10.7302L15.4747 7.6425C15.8821 7.23513 15.8821 6.57453 15.4747 6.16716Z" fill="white"/>
</svg>
