<svg width="31" height="28" viewBox="0 0 31 28" fill="none" xmlns="http://www.w3.org/2000/svg">
<g filter="url(#filter0_d_1603_3241)">
<path d="M15.2908 6.90746C15.6603 6.52202 16.0051 6.1168 16.3968 5.761C18.5124 3.83748 21.3557 3.45574 23.564 4.7838C25.8389 6.15263 26.9832 9.03113 26.306 11.7564C25.6919 14.231 24.1979 16.1841 22.5111 18.0088C20.4487 20.24 18.0663 22.1017 15.6158 23.8795C15.4626 23.9907 15.1191 24.0463 14.9918 23.9536C11.6257 21.5026 8.34855 18.9465 5.93766 15.4787C4.85764 13.927 4.0396 12.2518 4.00129 10.3061C3.95062 7.74136 5.39765 5.39409 7.57623 4.45394C9.76222 3.51009 12.403 4.08826 14.2714 5.91914C14.5914 6.23293 14.9152 6.54302 15.2908 6.90746Z" fill="#96105E"/>
<path d="M17.002 6.42676C18.8647 4.73307 21.278 4.45877 23.0996 5.55371V5.55469C24.9546 6.6708 25.9572 9.01999 25.4834 11.3174L25.4326 11.5391V11.54C24.9444 13.5067 23.8382 15.1423 22.458 16.7227L21.8506 17.3975C19.8957 19.5122 17.6309 21.2977 15.2539 23.0283C12.2007 20.7958 9.32529 18.5207 7.12109 15.5801L6.67676 14.9648L6.30469 14.4072C5.5356 13.1958 5.00963 11.9592 4.91504 10.6035L4.90137 10.2881C4.85873 8.12604 6.0417 6.18801 7.76465 5.35742L7.93262 5.28027C9.62903 4.54781 11.7204 4.90224 13.3271 6.27441L13.6416 6.56152C13.9634 6.877 14.2943 7.19503 14.6641 7.55371L15.3145 8.18359L15.9404 7.53027C16.2561 7.20101 16.4912 6.93051 16.7422 6.67676L17.002 6.42676Z" stroke="#96105E" stroke-width="1.8"/>
</g>
<defs>
<filter id="filter0_d_1603_3241" x="0" y="0" width="30.5" height="28" filterUnits="userSpaceOnUse" color-interpolation-filters="sRGB">
<feFlood flood-opacity="0" result="BackgroundImageFix"/>
<feColorMatrix in="SourceAlpha" type="matrix" values="0 0 0 0 0 0 0 0 0 0 0 0 0 0 0 0 0 0 127 0" result="hardAlpha"/>
<feOffset/>
<feGaussianBlur stdDeviation="2"/>
<feComposite in2="hardAlpha" operator="out"/>
<feColorMatrix type="matrix" values="0 0 0 0 0 0 0 0 0 0 0 0 0 0 0 0 0 0 0.25 0"/>
<feBlend mode="normal" in2="BackgroundImageFix" result="effect1_dropShadow_1603_3241"/>
<feBlend mode="normal" in="SourceGraphic" in2="effect1_dropShadow_1603_3241" result="shape"/>
</filter>
</defs>
</svg>
