<svg width="25" height="23" viewBox="0 0 25 23" fill="none" xmlns="http://www.w3.org/2000/svg">
<path d="M24.9412 7.571C24.9146 7.51241 24.8822 7.45679 24.8445 7.405C24.8161 7.26142 24.778 7.12008 24.7304 6.982C24.7246 6.966 24.7188 6.95 24.7111 6.934L22.049 0.6C21.9737 0.421591 21.8497 0.269787 21.6922 0.163207C21.5347 0.0566271 21.3505 -9.42553e-05 21.1623 1.17571e-07H3.75653C3.5683 -9.42553e-05 3.38413 0.0566271 3.22662 0.163207C3.06911 0.269787 2.9451 0.421591 2.86981 0.6L0.19126 6.981C-0.0637533 7.65029 -0.0637533 8.39471 0.19126 9.064C0.437631 9.64643 0.794549 10.1718 1.24086 10.609C1.68718 11.0461 2.21381 11.3862 2.78955 11.609V22C2.78955 22.2652 2.89143 22.5196 3.07277 22.7071C3.25412 22.8946 3.50007 23 3.75653 23H21.1623C21.4187 23 21.6647 22.8946 21.846 22.7071C22.0274 22.5196 22.1293 22.2652 22.1293 22V11.609C22.7048 11.3865 23.2314 11.0467 23.6777 10.6099C24.124 10.1731 24.481 9.64809 24.7275 9.066C24.8072 8.85563 24.8602 8.63546 24.8852 8.411C24.9497 8.28243 24.9879 8.14152 24.9976 7.99702C25.0072 7.85253 24.988 7.70752 24.9412 7.571ZM9.55845 21V15H11.4924V21H9.55845ZM13.4264 21V15H15.3604V21H13.4264ZM20.1953 21H17.2943V14C17.2943 13.7348 17.1924 13.4804 17.0111 13.2929C16.8298 13.1054 16.5838 13 16.3273 13H8.59146C8.335 13 8.08904 13.1054 7.9077 13.2929C7.72635 13.4804 7.62447 13.7348 7.62447 14V21H4.72352V12C5.45612 12.0095 6.18187 11.8533 6.85 11.5424C7.51812 11.2315 8.11247 10.7733 8.59146 10.2C9.07591 10.7667 9.67126 11.2205 10.3381 11.5313C11.0049 11.842 11.728 12.0028 12.4594 12.0028C13.1908 12.0028 13.9139 11.842 14.5807 11.5313C15.2475 11.2205 15.8429 10.7667 16.3273 10.2C16.8063 10.7733 17.4007 11.2315 18.0688 11.5424C18.7369 11.8533 19.4627 12.0095 20.1953 12V21ZM22.9386 8.3C22.6913 8.82899 22.2999 9.2717 21.8125 9.57372C21.3251 9.87574 20.763 10.0239 20.1953 10C19.4915 10.0592 18.7933 9.83046 18.2509 9.36297C17.7084 8.89549 17.3649 8.22657 17.2943 7.5C17.2943 7.23478 17.1924 6.98043 17.0111 6.79289C16.8298 6.60536 16.5838 6.5 16.3273 6.5C16.0709 6.5 15.8249 6.60536 15.6436 6.79289C15.4622 6.98043 15.3604 7.23478 15.3604 7.5C15.2897 8.22657 14.9463 8.89549 14.4038 9.36297C13.8614 9.83046 13.1632 10.0592 12.4594 10C11.7556 10.0592 11.0574 9.83046 10.515 9.36297C9.97251 8.89549 9.62906 8.22657 9.55845 7.5C9.55845 7.23478 9.45657 6.98043 9.27522 6.79289C9.09388 6.60536 8.84792 6.5 8.59146 6.5C8.335 6.5 8.08904 6.60536 7.9077 6.79289C7.72635 6.98043 7.62447 7.23478 7.62447 7.5C7.55386 8.22657 7.2104 8.89549 6.66794 9.36297C6.12548 9.83046 5.42732 10.0592 4.72352 10C4.15567 10.024 3.59341 9.87585 3.10587 9.57384C2.61832 9.27182 2.22673 8.82907 1.97922 8.3C1.91441 8.11557 1.91441 7.91343 1.97922 7.729L4.39088 2H20.5279L22.9231 7.7C22.998 7.89155 23.0035 8.1046 22.9386 8.3Z" fill="white"/>
</svg>
