<svg width="52" height="32" viewBox="0 0 52 32" fill="none" xmlns="http://www.w3.org/2000/svg">
<g clip-path="url(#clip0_889_8881)">
<rect width="32" height="32" rx="2" fill="white"/>
<rect width="32" height="32" rx="2" fill="#C4C4C4"/>
<g filter="url(#filter0_d_889_8881)">
<path d="M18.7666 16.4078L18.4587 15.9053C18.2594 16.0259 18.15 16.2514 18.1793 16.4814C18.2084 16.7113 18.3707 16.9028 18.5939 16.9705L18.7666 16.4078ZM13.2334 16.4078L13.4061 16.9705C13.6292 16.9028 13.7915 16.7113 13.8208 16.4814C13.8499 16.2514 13.7405 16.0259 13.5412 15.9053L13.2334 16.4078ZM20.7362 11.8824C20.7362 13.5859 19.8256 15.0786 18.4587 15.9053L19.0744 16.9102C20.7795 15.8789 21.9203 14.0133 21.9203 11.8824H20.7362ZM16 7.17647C18.6157 7.17647 20.7362 9.28336 20.7362 11.8824H21.9203C21.9203 8.63362 19.2697 6 16 6V7.17647ZM11.2638 11.8824C11.2638 9.28336 13.3843 7.17647 16 7.17647V6C12.7303 6 10.0797 8.63362 10.0797 11.8824H11.2638ZM13.5412 15.9053C12.1744 15.0786 11.2638 13.5859 11.2638 11.8824H10.0797C10.0797 14.0133 11.2205 15.8789 12.9256 16.9102L13.5412 15.9053ZM13.0607 15.8451C9.32297 16.9775 6.50816 20.2122 6.01308 24.1649L7.18807 24.3102C7.62451 20.8256 10.108 17.9696 13.4061 16.9705L13.0607 15.8451ZM6.01308 24.1649C5.88223 25.2096 6.75325 26 7.71163 26V24.8235C7.36216 24.8235 7.1574 24.5552 7.18807 24.3102L6.01308 24.1649ZM7.71163 26H24.2884V24.8235H7.71163V26ZM24.2884 26C25.2468 26 26.1178 25.2096 25.9869 24.1649L24.8119 24.3102C24.8425 24.5552 24.6378 24.8235 24.2884 24.8235V26ZM25.9869 24.1649C25.4919 20.2122 22.677 16.9775 18.9392 15.8451L18.5939 16.9705C21.892 17.9696 24.3754 20.8256 24.8119 24.3102L25.9869 24.1649Z" fill="black"/>
</g>
</g>
<path fill-rule="evenodd" clip-rule="evenodd" d="M42 13.5L47 18.5L52 13.5H42Z" fill="white"/>
<defs>
<filter id="filter0_d_889_8881" x="-27.3333" y="6" width="86.6667" height="86.6667" filterUnits="userSpaceOnUse" color-interpolation-filters="sRGB">
<feFlood flood-opacity="0" result="BackgroundImageFix"/>
<feColorMatrix in="SourceAlpha" type="matrix" values="0 0 0 0 0 0 0 0 0 0 0 0 0 0 0 0 0 0 127 0" result="hardAlpha"/>
<feOffset dy="33.3333"/>
<feGaussianBlur stdDeviation="16.6667"/>
<feColorMatrix type="matrix" values="0 0 0 0 0 0 0 0 0 0 0 0 0 0 0 0 0 0 0.1 0"/>
<feBlend mode="normal" in2="BackgroundImageFix" result="effect1_dropShadow_889_8881"/>
<feBlend mode="normal" in="SourceGraphic" in2="effect1_dropShadow_889_8881" result="shape"/>
</filter>
<clipPath id="clip0_889_8881">
<rect width="32" height="32" rx="2" fill="white"/>
</clipPath>
</defs>
</svg>
