<svg width="36" height="32" viewBox="0 0 36 32" fill="none" xmlns="http://www.w3.org/2000/svg">
<path d="M18.0487 9.48418C18.3892 9.48418 19.1982 9.69952 19.1982 9.69952C21.39 10.2018 22.9328 12.2206 22.9328 14.5V20.6352L23.3809 21.0854L23.7553 21.4615H12.2459L12.6203 21.0854L13.0684 20.6352V14.5C13.0684 12.2207 14.6112 10.2018 16.803 9.69952C16.803 9.69952 17.6704 9.48418 17.9525 9.48418M18.0006 6C17.1544 6 16.5074 6.6499 16.5074 7.5V8.19995C13.6701 8.8501 11.53 11.45 11.53 14.5V20L9.53906 22V23H26.4621V22L24.4712 20V14.5C24.4712 11.45 22.331 8.8501 19.4938 8.19995V7.5C19.4938 6.6499 18.8469 6 18.0006 6ZM19.9915 24H16.0096C16.0096 25.1 16.9055 26 18.0006 26C19.0957 26 19.9915 25.1 19.9915 24Z" fill="white"/>
</svg>
