<svg width="26" height="24" viewBox="0 0 26 24" fill="none" xmlns="http://www.w3.org/2000/svg">
<path d="M5.39969 3.25H25L22.3333 12H6.83561M23.6667 17H7.66667L5 0.75H1M9 22C9 22.6904 8.40304 23.25 7.66667 23.25C6.93029 23.25 6.33333 22.6904 6.33333 22C6.33333 21.3096 6.93029 20.75 7.66667 20.75C8.40304 20.75 9 21.3096 9 22ZM23.6667 22C23.6667 22.6904 23.0697 23.25 22.3333 23.25C21.5969 23.25 21 22.6904 21 22C21 21.3096 21.5969 20.75 22.3333 20.75C23.0697 20.75 23.6667 21.3096 23.6667 22Z" stroke="white" stroke-width="1.5" stroke-linecap="round" stroke-linejoin="round"/>
</svg>
