<svg width="23" height="23" viewBox="0 0 23 23" fill="none" xmlns="http://www.w3.org/2000/svg">
<path d="M22.1768 23H14.5175C14.1171 23 13.7666 22.6649 13.7666 22.282V16.3944C13.7666 15.1498 12.7654 14.1925 11.4638 14.1925C10.1623 14.1925 9.16106 15.1498 9.16106 16.3944V22.282C9.16106 22.6649 8.81064 23 8.41016 23H0.750907C0.350423 23 0 22.6649 0 22.282V11.0333C0 10.8418 0.100121 10.6504 0.200242 10.5068L10.9632 0.215401C11.2636 -0.0718002 11.7141 -0.0718002 12.0145 0.215401L22.7775 10.5068C22.9778 10.6982 23.0779 11.0333 22.9277 11.2726C22.9277 11.3205 22.8776 11.3205 22.8776 11.3684V22.282C22.9277 22.6649 22.5773 23 22.1768 23ZM15.2684 21.564H21.4259V11.2248L11.5139 1.74714L1.50181 11.3205V21.564H7.65925V16.3944C7.65925 14.3361 9.31125 12.7565 11.4638 12.7565C13.6164 12.7565 15.2684 14.3361 15.2684 16.3944V21.564Z" fill="white"/>
</svg>
