<svg width="25" height="25" viewBox="0 0 25 25" fill="none" xmlns="http://www.w3.org/2000/svg">
<path d="M1 1H24" stroke="white" stroke-width="2" stroke-miterlimit="10" stroke-linecap="round" stroke-linejoin="round"/>
<path d="M1 8.26367H11.35" stroke="white" stroke-width="2" stroke-miterlimit="10" stroke-linecap="round" stroke-linejoin="round"/>
<path d="M1 15.5273H7.9" stroke="white" stroke-width="2" stroke-miterlimit="10" stroke-linecap="round" stroke-linejoin="round"/>
<path d="M1 22.7891H5.6" stroke="white" stroke-width="2" stroke-miterlimit="10" stroke-linecap="round" stroke-linejoin="round"/>
<path d="M12.3156 24.0006C13.7002 24.0006 14.8226 22.8191 14.8226 21.3616C14.8226 19.9041 13.7002 18.7227 12.3156 18.7227C10.9311 18.7227 9.80859 19.9041 9.80859 21.3616C9.80859 22.8191 10.9311 24.0006 12.3156 24.0006Z" stroke="white" stroke-width="1.5" stroke-linecap="round" stroke-linejoin="round"/>
<path d="M24.0012 19.6055V9.30388C24.0012 7.11282 22.6902 6.81019 21.3677 7.18545L16.3652 8.62598C15.4567 8.8923 14.8242 9.64279 14.8242 10.7444V12.5845V13.8192V21.3609" stroke="white" stroke-width="1.5" stroke-linecap="round" stroke-linejoin="round"/>
<path d="M21.4933 22.2447C22.8779 22.2447 24.0003 21.0632 24.0003 19.6058C24.0003 18.1484 22.8779 16.9668 21.4933 16.9668C20.1087 16.9668 18.9863 18.1484 18.9863 19.6058C18.9863 21.0632 20.1087 22.2447 21.4933 22.2447Z" stroke="white" stroke-width="1.5" stroke-linecap="round" stroke-linejoin="round"/>
<path d="M14.8242 13.8323L24.0012 11.1934" stroke="white" stroke-width="1.5" stroke-linecap="round" stroke-linejoin="round"/>
</svg>
