<svg width="23" height="23" viewBox="0 0 23 23" fill="none" xmlns="http://www.w3.org/2000/svg">
<path d="M5.07567 0.881628C8.84498 -0.929064 13.364 0.116715 15.9575 3.40018C18.5509 6.68376 18.5267 11.3287 15.8989 14.5848L17.1763 15.4676C17.3757 15.5954 17.5605 15.7452 17.7261 15.9148L22.8364 21.032C23.0646 21.2859 23.0526 21.6746 22.81 21.9148L21.9165 22.8103C21.7965 22.9314 21.6327 22.9998 21.4624 22.9998C21.2922 22.9997 21.1291 22.9314 21.0093 22.8103L15.8989 17.6932C15.7578 17.5517 15.6296 17.3977 15.5161 17.2332L14.5571 15.9539C12.9719 17.2213 11.0035 17.9114 8.97508 17.9109C4.79447 17.9255 1.16129 15.0374 0.227033 10.9568C-0.707172 6.87631 1.30646 2.6924 5.07567 0.881628ZM8.9741 2.55936C5.44627 2.55936 2.58641 5.42308 2.58641 8.95585C2.58657 12.4885 5.44637 15.3523 8.9741 15.3523C10.6681 15.3522 12.2929 14.6778 13.4907 13.4783C14.6884 12.2788 15.3617 10.6521 15.3618 8.95585C15.3618 5.42323 12.5017 2.55961 8.9741 2.55936Z" fill="white"/>
</svg>
